<?xml version="1.0" encoding="UTF-8"?>
<svg version="1.1" xmlns="http://www.w3.org/2000/svg" width="300" height="300">
<path d="M0 0 C40.92 0 81.84 0 124 0 C124 60.72 124 121.44 124 184 C92.95861824 185.14968081 92.95861824 185.14968081 79.52270508 185.02172852 C77.97194742 185.01151835 76.42118624 185.00183274 74.87042236 184.99261475 C70.76672957 184.96680481 66.66312432 184.93391082 62.55949616 184.89946485 C58.23148175 184.86443369 53.90342177 184.83630517 49.57536316 184.80735779 C41.42700899 184.75185447 33.27871181 184.69039216 25.13041848 184.62663645 C14.08610658 184.54057934 3.04172865 184.46403682 -8.00264835 184.38688183 C-25.3351617 184.26555435 -42.66755568 184.13178253 -60 184 C-60 143.08 -60 102.16 -60 60 C-46.14 60 -32.28 60 -18 60 C-16.28077963 61.71922037 -16.88026105 63.90543771 -16.87557125 66.19706059 C-16.88096841 67.31586691 -16.88096841 67.31586691 -16.88647461 68.45727539 C-16.88635407 69.25037078 -16.88623354 70.04346617 -16.88610935 70.86059475 C-16.8868585 73.43964333 -16.89448679 76.01862052 -16.90234375 78.59765625 C-16.90381316 80.18518031 -16.90483388 81.77270485 -16.90539551 83.36022949 C-16.91064846 89.26099369 -16.92460954 95.16174754 -16.9375 101.0625 C-16.9684375 120.8315625 -16.9684375 120.8315625 -17 141 C15.34 141 47.68 141 81 141 C81 108.66 81 76.32 81 43 C54.27 43 27.54 43 0 43 C0 28.81 0 14.62 0 0 Z " fill="#253780" transform="translate(118,58)"/>
<path d="M0 0 C40.92 0 81.84 0 124 0 C124 60.72 124 121.44 124 184 C92.95861824 185.14968081 92.95861824 185.14968081 79.52270508 185.02172852 C77.97194742 185.01151835 76.42118624 185.00183274 74.87042236 184.99261475 C70.76672957 184.96680481 66.66312432 184.93391082 62.55949616 184.89946485 C58.23148175 184.86443369 53.90342177 184.83630517 49.57536316 184.80735779 C41.42700899 184.75185447 33.27871181 184.69039216 25.13041848 184.62663645 C14.08610658 184.54057934 3.04172865 184.46403682 -8.00264835 184.38688183 C-25.3351617 184.26555435 -42.66755568 184.13178253 -60 184 C-60 143.08 -60 102.16 -60 60 C-46.14 60 -32.28 60 -18 60 C-16.28077963 61.71922037 -16.88026105 63.90543771 -16.87557125 66.19706059 C-16.88096841 67.31586691 -16.88096841 67.31586691 -16.88647461 68.45727539 C-16.88635407 69.25037078 -16.88623354 70.04346617 -16.88610935 70.86059475 C-16.8868585 73.43964333 -16.89448679 76.01862052 -16.90234375 78.59765625 C-16.90381316 80.18518031 -16.90483388 81.77270485 -16.90539551 83.36022949 C-16.91064846 89.26099369 -16.92460954 95.16174754 -16.9375 101.0625 C-16.9684375 120.8315625 -16.9684375 120.8315625 -17 141 C15.34 141 47.68 141 81 141 C81 108.66 81 76.32 81 43 C54.27 43 27.54 43 0 43 C0 28.81 0 14.62 0 0 Z M2 2 C2 15.2 2 28.4 2 42 C28.73 42 55.46 42 83 42 C82.67 75 82.34 108 82 142 C32.5 142.495 32.5 142.495 -18 143 C-18 116.27 -18 89.54 -18 62 C-31.2 62 -44.4 62 -58 62 C-58 101.6 -58 141.2 -58 182 C1.4 182 60.8 182 122 182 C122 122.6 122 63.2 122 2 C82.4 2 42.8 2 2 2 Z " fill="#A0ABD5" transform="translate(118,58)"/>
<path d="M0 0 C14.19 0 28.38 0 43 0 C43 14.19 43 28.38 43 43 C28.81 43 14.62 43 0 43 C0 28.81 0 14.62 0 0 Z " fill="#38478A" transform="translate(58,58)"/>
<path d="M0 0 C26.73 0 53.46 0 81 0 C81.04010881 24.91648367 81.04010881 24.91648367 81.04882812 35.49804688 C81.05481712 42.73202239 81.06191893 49.9659853 81.07543945 57.19995117 C81.08626645 63.02894288 81.09227643 68.85792109 81.09487724 74.68692207 C81.09673183 76.9161761 81.10035308 79.14542935 81.10573006 81.37467766 C81.11293799 84.48539734 81.11399105 87.59606049 81.11352539 90.70678711 C81.11712067 91.63826569 81.12071594 92.56974426 81.12442017 93.52944946 C81.11405216 99.88594784 81.11405216 99.88594784 80 101 C76.8949275 101.09533653 73.81213542 101.12551126 70.70678711 101.11352539 C69.73128403 101.11367142 68.75578094 101.11381744 67.75071716 101.1139679 C64.50957047 101.11326833 61.26848046 101.10547391 58.02734375 101.09765625 C55.78674857 101.09579222 53.54615298 101.09436825 51.30555725 101.09336853 C45.3954049 101.08954213 39.48527695 101.0797108 33.57513428 101.06866455 C26.49084731 101.0566591 19.40655221 101.05204877 12.322258 101.04621124 C1.548155 101.03649911 -9.2258944 101.0173434 -20 101 C-20 74.27 -20 47.54 -20 20 C-19.67 20 -19.34 20 -19 20 C-19 46.07 -19 72.14 -19 99 C13.34 99 45.68 99 79 99 C79 66.66 79 34.32 79 1 C52.93 1 26.86 1 0 1 C0 0.67 0 0.34 0 0 Z " fill="#9099BD" transform="translate(120,100)"/>
</svg>
